<svg xmlns="http://www.w3.org/2000/svg" viewBox="0 0 1024 1024"><rect x="0" y="0" width="1024" height="1024" rx="246" ry="246" fill="#6D2038"/><g transform="scale(1.024)"><g transform="translate(47,-60) translate(500,500) scale(1.22) translate(-500,-500)"><path d="M352.78-438.96L352.78-438.96Q350.30-411.06 349.37-385.02Q348.44-358.98 348.44-344.72L348.44-344.72Q348.44-331.08 349.06-318.68Q349.68-306.28 350.30-297.60L350.30-297.60L336.04-297.60Q327.98-345.96 313.72-373.55Q299.46-401.14 278.69-412.92Q257.92-424.70 229.40-424.70L229.40-424.70L208.94-424.70Q190.96-424.70 181.66-421.60Q172.36-418.50 169.26-409.20Q166.16-399.90 166.16-380.68L166.16-380.68L166.16-224.44L187.86-224.44Q206.46-224.44 219.17-232.19Q231.88-239.94 240.56-252.65Q249.24-265.36 254.20-279.62Q259.16-293.88 261.64-306.28L261.64-306.28L275.90-306.28Q273.42-270.94 273.73-252.34Q274.04-233.74 274.04-218.24Q274.04-202.74 274.66-184.14Q275.28-165.54 277.76-130.20L277.76-130.20L263.50-130.20Q259.78-151.90 251.72-170.50Q243.66-189.10 228.16-200.57Q212.66-212.04 187.86-212.04L187.86-212.04L166.16-212.04L166.16-69.44Q166.16-45.26 171.12-33.48Q176.08-21.70 190.34-17.98Q204.60-14.26 232.50-13.64L232.50-13.64L232.50 0Q213.28-0.62 182.90-1.24Q152.52-1.86 119.04-1.86L119.04-1.86Q92.38-1.86 66.96-1.24Q41.54-0.62 21.08 0L21.08 0L21.08-12.40Q40.92-13.64 50.84-17.36Q60.76-21.08 64.17-32.24Q67.58-43.40 67.58-65.72L67.58-65.72L67.58-373.24Q67.58-396.18 64.17-407.03Q60.76-417.88 50.53-421.91Q40.30-425.94 21.08-426.56L21.08-426.56L21.08-438.96Q46.50-438.34 75.02-438.03Q103.54-437.72 131.44-437.41Q159.34-437.10 183.52-437.10L183.52-437.10L223.20-437.10Q251.72-437.10 287.99-437.41Q324.26-437.72 352.78-438.96Z" transform="translate(170,687.61)" fill="#F5EDE3"></path><path d="M21.08-426.56L21.08-438.96Q36.58-438.34 62.93-437.72Q89.28-437.10 115.32-437.10L115.32-437.10Q145.08-437.10 172.98-437.72Q200.88-438.34 212.66-438.34L212.66-438.34Q298.84-438.34 341.62-404.24Q384.40-370.14 384.40-316.20L384.40-316.20Q384.40-293.88 375.72-269.39Q367.04-244.90 346.27-224.13Q325.50-203.36 289.54-190.34Q253.58-177.32 199.02-177.32L199.02-177.32L166.16-177.32L166.16-69.44Q166.16-45.26 171.12-33.48Q176.08-21.70 190.34-17.98Q204.60-14.26 232.50-13.64L232.50-13.64L232.50 0Q213.28-0.62 182.90-1.24Q152.52-1.86 119.04-1.86L119.04-1.86Q92.38-1.86 66.96-1.24Q41.54-0.62 21.08 0L21.08 0L21.08-12.40Q40.92-13.64 50.84-17.36Q60.76-21.08 64.17-32.24Q67.58-43.40 67.58-65.72L67.58-65.72L67.58-373.24Q67.58-396.18 64.17-407.03Q60.76-417.88 50.53-421.91Q40.30-425.94 21.08-426.56L21.08-426.56ZM166.16-373.24L166.16-189.72L192.82-189.72Q229.40-189.72 248.31-206.46Q267.22-223.20 274.35-250.48Q281.48-277.76 281.48-309.38L281.48-309.38Q281.48-368.28 264.12-397.42Q246.76-426.56 204.60-426.56L204.60-426.56Q180.42-426.56 173.29-416.02Q166.16-405.48 166.16-373.24L166.16-373.24Z" transform="translate(336,849.61)" fill="#F5EDE3"></path></g></g></svg>
